<svg width="781.43" height="756.44" xmlns="http://www.w3.org/2000/svg" xmlns:xlink="http://www.w3.org/1999/xlink">
 <defs>
  <linearGradient y2="0.000043" x2="0.5" y1="1" x1="0.5" id="b3f40125-0363-42ff-a31c-61eb5d655202">
   <stop stop-opacity="0.25" stop-color="gray" offset="0"/>
   <stop stop-opacity="0.12" stop-color="gray" offset="0.54"/>
   <stop stop-opacity="0.1" stop-color="gray" offset="1"/>
  </linearGradient>
  <linearGradient xlink:href="#b3f40125-0363-42ff-a31c-61eb5d655202" y2="0" x2="661.23" y1="231.77" x1="661.23" id="1b187342-85ad-4174-acd7-e912b9a9009d"/>
  <linearGradient xlink:href="#b3f40125-0363-42ff-a31c-61eb5d655202" y2="250.85" x2="115.89" y1="482.62" x1="115.89" id="5629c76b-b43c-4c6e-ad7d-c063ce4611c3"/>
 </defs>
 <title>team</title>
 <g>
  <title>background</title>
  <rect fill="none" id="canvas_background" height="402" width="582" y="-1" x="-1"/>
 </g>
 <g>
  <title>Layer 1</title>
  <g id="svg_1" opacity="0.5">
   <circle id="svg_2" fill="url(#b3f40125-0363-42ff-a31c-61eb5d655202)" r="115.889999" cy="132.09" cx="116.72"/>
  </g>
  <circle id="svg_3" fill="#f5f5f5" r="113.440002" cy="131.46" cx="116.72"/>
  <path id="svg_4" fill="#6c63ff" d="m117.040001,253.220001a112.91,112.91 0 0 0 62.36,-18.66c-4.18,-22.84 -20.09,-24.15 -20.09,-24.15l-87.71,0s-15,1.23 -19.7,22.25a112.92,112.92 0 0 0 65.14,20.56z"/>
  <circle id="svg_5" fill="#333" r="50.290001" cy="136.96" cx="115.85"/>
  <path id="svg_6" opacity="0.1" d="m98.18,182.57l35.09,0a0,0 0 0 1 0,0l0,28.07a17.54,17.54 0 0 1 -17.54,17.54l0,0a17.54,17.54 0 0 1 -17.54,-17.54l0,-28.07a0,0 0 0 1 -0.01,0z"/>
  <path id="svg_7" fill="#be7c5e" d="m101.53,181.27l28.39,0a3.35,3.35 0 0 1 3.35,3.35l0,24.72a17.54,17.54 0 0 1 -17.54,17.54l0,0a17.54,17.54 0 0 1 -17.54,-17.54l0,-24.72a3.35,3.35 0 0 1 3.34,-3.35z"/>
  <path id="svg_8" opacity="0.1" d="m98.250001,195.820001a50.5,50.5 0 0 0 35.09,0.1l0,-4.31l-35.09,0l0,4.21z"/>
  <circle id="svg_9" fill="#be7c5e" r="50.290001" cy="147.88" cx="115.85"/>
  <path id="svg_10" fill="#333" d="m85.380001,127.140001c0.59,-2.17 1.33,-4.56 3.28,-5.69c1.54,-0.9 3.45,-0.76 5.23,-0.67c13.9,0.76 27.68,-2.41 41.2,-5.72c7.73,-1.89 16,-4.19 21,-10.42s-1.52,-25.81 -9.13,-28.12c-5,-1.53 -10.8,1.32 -15.54,-0.92c-2.11,-1 -3.66,-2.87 -5.48,-4.33c-3.73,-3 -8.52,-4.21 -13.16,-5.35c-5.42,-1.34 -11.28,-2.65 -16.43,-0.5c-4,1.66 -6.92,5.17 -10.71,7.25c-7.21,4 -16,2.14 -24.26,2.12c-2.79,0 -6.12,0.56 -7.23,3.12c-0.75,1.74 -0.15,3.72 -0.07,5.61c0.24,6 -4.71,10.67 -8.86,15s-8.07,10.51 -5.45,15.89c1,2.05 2.83,3.6 3.87,5.63c1.79,3.52 0.89,7.77 1.54,11.66a29.34,29.34 0 0 0 3.27,8.4c3.08,6 18.55,38.3 25.66,30.09c3.44,-4 4,-15.56 5.39,-20.76q2.88,-11.21 5.88,-22.29z"/>
  <ellipse id="svg_11" fill="#be7c5e" ry="8.77" rx="4.68" cy="146.05" cx="80.07"/>
  <g id="svg_45" opacity="0.5">
   <circle id="svg_46" fill="url(#1b187342-85ad-4174-acd7-e912b9a9009d)" r="115.889999" cy="133.89" cx="661.23"/>
  </g>
  <circle id="svg_47" fill="#f5f5f5" r="113.440002" cy="133.14" cx="661.45"/>
  <path id="svg_48" fill="#6c63ff" d="m661.550001,247.040001a112.91,112.91 0 0 0 62.36,-18.66c-4.19,-22.85 -20.09,-24.16 -20.09,-24.16l-87.71,0s-15,1.23 -19.7,22.25a112.92,112.92 0 0 0 65.14,20.57z"/>
  <circle id="svg_49" fill="#72351c" r="54.759998" cy="130.75" cx="660.36"/>
  <path id="svg_50" opacity="0.1" d="m642.68,176.36l35.09,0a0,0 0 0 1 0,0l0,28.07a17.54,17.54 0 0 1 -17.54,17.57l0,0a17.54,17.54 0 0 1 -17.54,-17.54l0,-28.1a0,0 0 0 1 -0.01,0z"/>
  <path id="svg_51" fill="#fda57d" d="m646,175.06l28.39,0a3.35,3.35 0 0 1 3.35,3.35l0,24.72a17.54,17.54 0 0 1 -17.54,17.54l0,0a17.54,17.54 0 0 1 -17.54,-17.54l0,-24.72a3.35,3.35 0 0 1 3.35,-3.35l-0.01,0z"/>
  <path id="svg_52" opacity="0.1" d="m642.720001,189.610001a50.5,50.5 0 0 0 35.09,0.1l0,-4.31l-35.09,0l0,4.21z"/>
  <circle id="svg_53" fill="#fda57d" r="50.290001" cy="141.67" cx="660.36"/>
  <path id="svg_54" opacity="0.1" d="m624.540001,95.930001s21.19,43 81,18l-13.92,-21.83l-24.67,-8.86l-42.41,12.69z"/>
  <path id="svg_55" fill="#72351c" d="m624.540001,95.300001s21.19,43 81,18l-13.92,-21.83l-24.67,-8.86l-42.41,12.69z"/>
  <path id="svg_56" fill="#72351c" d="m624.350001,92.390001a29.05,29.05 0 0 1 7.2,-11.71c9.89,-9.78 26.11,-11.84 34.43,-23a6.51,6.51 0 0 1 -3,9.18c8,-0.05 17.21,-0.75 21.71,-7.31a14.91,14.91 0 0 1 -2.51,15.74c7.06,0.32 14.6,5.11 15.06,12.17c0.3,4.7 -2.64,9.15 -6.51,11.85s-8.53,3.91 -13.13,4.91c-13.42,3 -62.01,15.41 -53.25,-11.83z"/>
  <path id="svg_57" fill="#72351c" d="m710.650001,142.110001l-1.33,0l-25.94,23.11c-25,-11.7 -43.34,0 -43.34,0l-27.2,-22.14l-2.74,0.34a50.29,50.29 0 0 0 100.56,-1.29l-0.01,-0.02zm-50.35,31.97c-9.78,0 -17.71,-2 -17.71,-4.43s7.93,-4.43 17.71,-4.43s17.71,2 17.71,4.43s-7.94,4.41 -17.73,4.41l0.02,0.02z"/>
  <ellipse id="svg_58" fill="#fda57d" ry="8.77" rx="4.68" cy="141.62" cx="610.05"/>
  <ellipse id="svg_59" fill="#fda57d" ry="8.77" rx="4.68" cy="123.62" cx="710.64"/>
  <g id="svg_60" opacity="0.5">
   <circle id="svg_61" fill="url(#5629c76b-b43c-4c6e-ad7d-c063ce4611c3)" r="115.889999" cy="133.73" cx="384.89"/>
  </g>
  <circle id="svg_62" fill="#f5f5f5" r="113.440002" cy="132.99" cx="385.11"/>
  <path id="svg_63" fill="#6c63ff" d="m385.210001,246.880001a112.91,112.91 0 0 0 62.35,-18.66c-4.18,-22.84 -20.09,-24.15 -20.09,-24.15l-87.75,0s-15,1.23 -19.7,22.25a112.92,112.92 0 0 0 65.19,20.56z"/>
  <circle id="svg_64" fill="#333" r="54.759998" cy="130.6" cx="384.01"/>
  <path id="svg_65" opacity="0.1" d="m366.34,176.21l35.09,0a0,0 0 0 1 0,0l0,28.07a17.54,17.54 0 0 1 -17.54,17.54l0,0a17.54,17.54 0 0 1 -17.54,-17.54l0,-28.07a0,0 0 0 1 -0.01,0z"/>
  <path id="svg_66" fill="#fdb797" d="m369.69,174.91l28.39,0a3.35,3.35 0 0 1 3.35,3.35l0,24.74a17.54,17.54 0 0 1 -17.54,17.54l0,0a17.54,17.54 0 0 1 -17.55,-17.54l0,-24.75a3.35,3.35 0 0 1 3.35,-3.35l0,0.01z"/>
  <path id="svg_67" opacity="0.1" d="m366.410001,189.460001a50.5,50.5 0 0 0 35.09,0.1l0,-4.34l-35.09,0l0,4.24z"/>
  <circle id="svg_68" fill="#fdb797" r="50.290001" cy="141.52" cx="384.01"/>
  <path id="svg_69" opacity="0.1" d="m348.200001,95.770001s21.19,43 81,18l-13.92,-21.83l-24.67,-8.86l-42.41,12.69z"/>
  <path id="svg_70" fill="#333" d="m348.200001,95.140001s21.19,43 81,18l-13.92,-21.83l-24.67,-8.86l-42.41,12.69z"/>
  <path id="svg_71" fill="#333" d="m348.010001,92.220001a29.05,29.05 0 0 1 7.2,-11.71c9.89,-9.78 26.11,-11.84 34.43,-23a6.51,6.51 0 0 1 -3,9.18c8,-0.05 17.21,-0.75 21.71,-7.31a14.91,14.91 0 0 1 -2.51,15.74c7.06,0.32 14.6,5.11 15.06,12.17c0.3,4.7 -2.64,9.15 -6.51,11.85s-8.54,3.93 -13.14,4.95c-13.42,2.98 -62,15.39 -53.24,-11.87z"/>
  <ellipse id="svg_72" fill="#fdb797" ry="8.77" rx="4.68" cy="141.47" cx="333.7"/>
  <ellipse id="svg_73" fill="#fdb797" ry="8.77" rx="4.68" cy="141.47" cx="434.29"/>
  <rect id="svg_85" stroke-width="2" stroke-miterlimit="10" stroke="#333" fill="none" transform="rotate(180 2472.27490234375,1322.5200195312502) " ry="4.35" rx="4.35" height="10.76" width="21.51" y="1317.14" x="2461.520044"/>
  <g id="svg_118" opacity="0.5">
   <circle id="svg_117" fill="url(#b3f40125-0363-42ff-a31c-61eb5d655202)" r="115.889999" cy="396.09" cx="116.72"/>
  </g>
  <circle id="svg_119" fill="#f5f5f5" r="113.440002" cy="395.46" cx="116.72"/>
  <path id="svg_120" fill="#6c63ff" d="m117.04,517.22a112.91,112.91 0 0 0 62.36,-18.66c-4.18,-22.84 -20.09,-24.15 -20.09,-24.15l-87.71,0s-15,1.23 -19.7,22.25a112.92,112.92 0 0 0 65.14,20.56z"/>
  <circle id="svg_121" fill="#333" r="50.290001" cy="400.96" cx="115.85"/>
  <path id="svg_122" opacity="0.1" d="m98.18,446.57l35.09,0a0,0 0 0 1 0,0l0,28.07a17.54,17.54 0 0 1 -17.54,17.54l0,0a17.54,17.54 0 0 1 -17.54,-17.54l0,-28.07a0,0 0 0 1 -0.01,0z"/>
  <path id="svg_123" fill="#be7c5e" d="m101.53,445.27l28.39,0a3.35,3.35 0 0 1 3.35,3.35l0,24.72a17.54,17.54 0 0 1 -17.54,17.54l0,0a17.54,17.54 0 0 1 -17.54,-17.54l0,-24.72a3.35,3.35 0 0 1 3.34,-3.35z"/>
  <path id="svg_124" opacity="0.1" d="m98.25,459.82a50.5,50.5 0 0 0 35.09,0.1l0,-4.31l-35.09,0l0,4.21z"/>
  <circle id="svg_125" fill="#be7c5e" r="50.290001" cy="411.88" cx="115.85"/>
  <path id="svg_126" fill="#333" d="m85.38,391.14c0.59,-2.17 1.33,-4.56 3.28,-5.69c1.54,-0.9 3.45,-0.76 5.23,-0.67c13.9,0.76 27.68,-2.41 41.2,-5.72c7.73,-1.89 16,-4.19 21,-10.42s-1.52,-25.81 -9.13,-28.12c-5,-1.53 -10.8,1.32 -15.54,-0.92c-2.11,-1 -3.66,-2.87 -5.48,-4.33c-3.73,-3 -8.52,-4.21 -13.16,-5.35c-5.42,-1.34 -11.28,-2.65 -16.43,-0.5c-4,1.66 -6.92,5.17 -10.71,7.25c-7.21,4 -16,2.14 -24.26,2.12c-2.79,0 -6.12,0.56 -7.23,3.12c-0.75,1.74 -0.15,3.72 -0.07,5.61c0.24,6 -4.71,10.67 -8.86,15s-8.07,10.51 -5.45,15.89c1,2.05 2.83,3.6 3.87,5.63c1.79,3.52 0.89,7.77 1.54,11.66a29.34,29.34 0 0 0 3.27,8.4c3.08,6 18.55,38.3 25.66,30.09c3.44,-4 4,-15.56 5.39,-20.76q2.88,-11.21 5.88,-22.29z"/>
  <ellipse id="svg_127" fill="#be7c5e" ry="8.77" rx="4.68" cy="410.05" cx="80.07"/>
  <g id="svg_129" opacity="0.5">
   <circle id="svg_128" fill="url(#1b187342-85ad-4174-acd7-e912b9a9009d)" r="115.889999" cy="397.89" cx="661.23"/>
  </g>
  <circle id="svg_130" fill="#f5f5f5" r="113.440002" cy="397.14" cx="661.45"/>
  <path id="svg_131" fill="#6c63ff" d="m661.55,511.04a112.91,112.91 0 0 0 62.36,-18.66c-4.19,-22.85 -20.09,-24.16 -20.09,-24.16l-87.71,0s-15,1.23 -19.7,22.25a112.92,112.92 0 0 0 65.14,20.57z"/>
  <circle id="svg_132" fill="#72351c" r="54.759998" cy="394.75" cx="660.36"/>
  <path id="svg_133" opacity="0.1" d="m642.68,440.36l35.09,0a0,0 0 0 1 0,0l0,28.07a17.54,17.54 0 0 1 -17.54,17.57l0,0a17.54,17.54 0 0 1 -17.54,-17.54l0,-28.1a0,0 0 0 1 -0.01,0z"/>
  <path id="svg_134" fill="#fda57d" d="m646,439.06l28.39,0a3.35,3.35 0 0 1 3.35,3.35l0,24.72a17.54,17.54 0 0 1 -17.54,17.54l0,0a17.54,17.54 0 0 1 -17.54,-17.54l0,-24.72a3.35,3.35 0 0 1 3.35,-3.35l-0.01,0z"/>
  <path id="svg_135" opacity="0.1" d="m642.72,453.61a50.5,50.5 0 0 0 35.09,0.1l0,-4.31l-35.09,0l0,4.21z"/>
  <circle id="svg_136" fill="#fda57d" r="50.290001" cy="405.67" cx="660.36"/>
  <path id="svg_137" opacity="0.1" d="m624.54,359.93s21.19,43 81,18l-13.92,-21.83l-24.67,-8.86l-42.41,12.69z"/>
  <path id="svg_138" fill="#72351c" d="m624.54,359.3s21.19,43 81,18l-13.92,-21.83l-24.67,-8.86l-42.41,12.69z"/>
  <path id="svg_139" fill="#72351c" d="m624.35,356.39a29.05,29.05 0 0 1 7.2,-11.71c9.89,-9.78 26.11,-11.84 34.43,-23a6.51,6.51 0 0 1 -3,9.18c8,-0.05 17.21,-0.75 21.71,-7.31a14.91,14.91 0 0 1 -2.51,15.74c7.06,0.32 14.6,5.11 15.06,12.17c0.3,4.7 -2.64,9.15 -6.51,11.85s-8.53,3.91 -13.13,4.91c-13.42,3 -62.01,15.41 -53.25,-11.83z"/>
  <path id="svg_140" fill="#72351c" d="m710.65,406.11l-1.33,0l-25.94,23.11c-25,-11.7 -43.34,0 -43.34,0l-27.2,-22.14l-2.74,0.34a50.29,50.29 0 0 0 100.56,-1.29l-0.01,-0.02zm-50.35,31.97c-9.78,0 -17.71,-2 -17.71,-4.43s7.93,-4.43 17.71,-4.43s17.71,2 17.71,4.43s-7.94,4.41 -17.73,4.41l0.02,0.02z"/>
  <ellipse id="svg_141" fill="#fda57d" ry="8.77" rx="4.68" cy="405.62" cx="610.05"/>
  <ellipse id="svg_142" fill="#fda57d" ry="8.77" rx="4.68" cy="387.62" cx="710.64"/>
  <g id="svg_144" opacity="0.5">
   <circle id="svg_143" fill="url(#5629c76b-b43c-4c6e-ad7d-c063ce4611c3)" r="115.889999" cy="397.73" cx="384.89"/>
  </g>
  <circle id="svg_145" fill="#f5f5f5" r="113.440002" cy="396.99" cx="385.11"/>
  <path id="svg_146" fill="#6c63ff" d="m385.21,510.88a112.91,112.91 0 0 0 62.35,-18.66c-4.18,-22.84 -20.09,-24.15 -20.09,-24.15l-87.75,0s-15,1.23 -19.7,22.25a112.92,112.92 0 0 0 65.19,20.56z"/>
  <circle id="svg_147" fill="#333" r="54.759998" cy="394.6" cx="384.01"/>
  <path id="svg_148" opacity="0.1" d="m366.34,440.21l35.09,0a0,0 0 0 1 0,0l0,28.07a17.54,17.54 0 0 1 -17.54,17.54l0,0a17.54,17.54 0 0 1 -17.54,-17.54l0,-28.07a0,0 0 0 1 -0.01,0z"/>
  <path id="svg_149" fill="#fdb797" d="m369.69,438.91l28.39,0a3.35,3.35 0 0 1 3.35,3.35l0,24.74a17.54,17.54 0 0 1 -17.54,17.54l0,0a17.54,17.54 0 0 1 -17.55,-17.54l0,-24.75a3.35,3.35 0 0 1 3.35,-3.35l0,0.01z"/>
  <path id="svg_150" opacity="0.1" d="m366.41,453.46a50.5,50.5 0 0 0 35.09,0.1l0,-4.34l-35.09,0l0,4.24z"/>
  <circle id="svg_151" fill="#fdb797" r="50.290001" cy="405.52" cx="384.01"/>
  <path id="svg_152" opacity="0.1" d="m348.2,359.77s21.19,43 81,18l-13.92,-21.83l-24.67,-8.86l-42.41,12.69z"/>
  <path id="svg_153" fill="#333" d="m348.2,359.14s21.19,43 81,18l-13.92,-21.83l-24.67,-8.86l-42.41,12.69z"/>
  <path id="svg_154" fill="#333" d="m348.01,356.22a29.05,29.05 0 0 1 7.2,-11.71c9.89,-9.78 26.11,-11.84 34.43,-23a6.51,6.51 0 0 1 -3,9.18c8,-0.05 17.21,-0.75 21.71,-7.31a14.91,14.91 0 0 1 -2.51,15.74c7.06,0.32 14.6,5.11 15.06,12.17c0.3,4.7 -2.64,9.15 -6.51,11.85s-8.54,3.93 -13.14,4.95c-13.42,2.98 -62,15.39 -53.24,-11.87z"/>
  <ellipse id="svg_155" fill="#fdb797" ry="8.77" rx="4.68" cy="405.47" cx="333.7"/>
  <ellipse id="svg_156" fill="#fdb797" ry="8.77" rx="4.68" cy="405.47" cx="434.29"/>
 </g>
</svg>